<?xml version="1.0" encoding="UTF-8" standalone="no"?><svg xmlns="http://www.w3.org/2000/svg" xmlns:xlink="http://www.w3.org/1999/xlink" contentStyleType="text/css" height="375px" preserveAspectRatio="none" style="width:1263px;height:375px;background:#FFFFFF;" version="1.1" viewBox="0 0 1263 375" width="1263px" zoomAndPan="magnify"><defs/><g><!--MD5=[60d6b92408f98aed8df94d5c6e04aa63]
class State--><g id="elem_State"><rect codeLine="1" fill="#F1F1F1" height="64.2969" id="State" rx="2.5" ry="2.5" style="stroke:#181818;stroke-width:0.5;" width="286" x="488" y="180"/><ellipse cx="608.75" cy="196" fill="#B4A7E5" rx="11" ry="11" style="stroke:#181818;stroke-width:1.0;"/><path d="M604.6719,191.7656 L604.6719,189.6094 L612.0625,189.6094 L612.0625,191.7656 L609.5938,191.7656 L609.5938,199.8438 L612.0625,199.8438 L612.0625,202 L604.6719,202 L604.6719,199.8438 L607.1406,199.8438 L607.1406,191.7656 L604.6719,191.7656 Z " fill="#000000"/><text fill="#000000" font-family="sans-serif" font-size="14" font-style="italic" lengthAdjust="spacing" textLength="36" x="629.25" y="200.8467">State</text><line style="stroke:#181818;stroke-width:0.5;" x1="489" x2="773" y1="212" y2="212"/><line style="stroke:#181818;stroke-width:0.5;" x1="489" x2="773" y1="220" y2="220"/><ellipse cx="499" cy="233.6484" fill="#84BE84" rx="3" ry="3" style="stroke:#038048;stroke-width:1.0;"/><text fill="#000000" font-family="sans-serif" font-size="14" lengthAdjust="spacing" textLength="260" x="508" y="236.9951">void pull(CeilingFanPullChain wrapper)</text></g><!--MD5=[7407f35e70a4bc60225604238b3b6f01]
class CeilingFanPullChain--><g id="elem_CeilingFanPullChain"><rect codeLine="5" fill="#F1F1F1" height="113.1875" id="CeilingFanPullChain" rx="2.5" ry="2.5" style="stroke:#181818;stroke-width:0.5;" width="180" x="541" y="7"/><ellipse cx="562.3" cy="23" fill="#ADD1B2" rx="11" ry="11" style="stroke:#181818;stroke-width:1.0;"/><path d="M565.2688,28.6406 Q564.6906,28.9375 564.05,29.0781 Q563.4094,29.2344 562.7063,29.2344 Q560.2063,29.2344 558.8781,27.5938 Q557.5656,25.9375 557.5656,22.8125 Q557.5656,19.6875 558.8781,18.0313 Q560.2063,16.375 562.7063,16.375 Q563.4094,16.375 564.05,16.5313 Q564.7063,16.6875 565.2688,16.9844 L565.2688,19.7031 Q564.6438,19.125 564.05,18.8594 Q563.4563,18.5781 562.8313,18.5781 Q561.4875,18.5781 560.8,19.6563 Q560.1125,20.7188 560.1125,22.8125 Q560.1125,24.9063 560.8,25.9844 Q561.4875,27.0469 562.8313,27.0469 Q563.4563,27.0469 564.05,26.7813 Q564.6438,26.5 565.2688,25.9219 L565.2688,28.6406 Z " fill="#000000"/><text fill="#000000" font-family="sans-serif" font-size="14" lengthAdjust="spacing" textLength="134" x="577.7" y="27.8467">CeilingFanPullChain</text><line style="stroke:#181818;stroke-width:0.5;" x1="542" x2="720" y1="39" y2="39"/><rect fill="none" height="6" style="stroke:#C82930;stroke-width:1.0;" width="6" x="549" y="49.6484"/><text fill="#000000" font-family="sans-serif" font-size="14" lengthAdjust="spacing" textLength="126" x="561" y="55.9951">State currentState</text><line style="stroke:#181818;stroke-width:0.5;" x1="542" x2="720" y1="63.2969" y2="63.2969"/><ellipse cx="552" cy="76.9453" fill="#84BE84" rx="3" ry="3" style="stroke:#038048;stroke-width:1.0;"/><text fill="#000000" font-family="sans-serif" font-size="14" lengthAdjust="spacing" textLength="144" x="561" y="80.292">CeilingFanPullChain()</text><ellipse cx="552" cy="93.2422" fill="#84BE84" rx="3" ry="3" style="stroke:#038048;stroke-width:1.0;"/><text fill="#000000" font-family="sans-serif" font-size="14" lengthAdjust="spacing" textLength="154" x="561" y="96.5889">void set_state(State s)</text><ellipse cx="552" cy="109.5391" fill="#84BE84" rx="3" ry="3" style="stroke:#038048;stroke-width:1.0;"/><text fill="#000000" font-family="sans-serif" font-size="14" lengthAdjust="spacing" textLength="66" x="561" y="112.8857">void pull()</text></g><!--MD5=[b9806f857068f75bad4375a63b663767]
class Off--><g id="elem_Off"><rect codeLine="12" fill="#F1F1F1" height="64.2969" id="Off" rx="2.5" ry="2.5" style="stroke:#181818;stroke-width:0.5;" width="286" x="7" y="304"/><ellipse cx="136.25" cy="320" fill="#ADD1B2" rx="11" ry="11" style="stroke:#181818;stroke-width:1.0;"/><path d="M139.2188,325.6406 Q138.6406,325.9375 138,326.0781 Q137.3594,326.2344 136.6563,326.2344 Q134.1563,326.2344 132.8281,324.5938 Q131.5156,322.9375 131.5156,319.8125 Q131.5156,316.6875 132.8281,315.0313 Q134.1563,313.375 136.6563,313.375 Q137.3594,313.375 138,313.5313 Q138.6563,313.6875 139.2188,313.9844 L139.2188,316.7031 Q138.5938,316.125 138,315.8594 Q137.4063,315.5781 136.7813,315.5781 Q135.4375,315.5781 134.75,316.6563 Q134.0625,317.7188 134.0625,319.8125 Q134.0625,321.9063 134.75,322.9844 Q135.4375,324.0469 136.7813,324.0469 Q137.4063,324.0469 138,323.7813 Q138.5938,323.5 139.2188,322.9219 L139.2188,325.6406 Z " fill="#000000"/><text fill="#000000" font-family="sans-serif" font-size="14" lengthAdjust="spacing" textLength="19" x="156.75" y="324.8467">Off</text><line style="stroke:#181818;stroke-width:0.5;" x1="8" x2="292" y1="336" y2="336"/><line style="stroke:#181818;stroke-width:0.5;" x1="8" x2="292" y1="344" y2="344"/><ellipse cx="18" cy="357.6484" fill="#84BE84" rx="3" ry="3" style="stroke:#038048;stroke-width:1.0;"/><text fill="#000000" font-family="sans-serif" font-size="14" lengthAdjust="spacing" textLength="260" x="27" y="360.9951">void pull(CeilingFanPullChain wrapper)</text></g><!--MD5=[1f527538a61505e18cfbf92b1740acba]
class Low--><g id="elem_Low"><rect codeLine="16" fill="#F1F1F1" height="64.2969" id="Low" rx="2.5" ry="2.5" style="stroke:#181818;stroke-width:0.5;" width="286" x="328" y="304"/><ellipse cx="453.25" cy="320" fill="#ADD1B2" rx="11" ry="11" style="stroke:#181818;stroke-width:1.0;"/><path d="M456.2188,325.6406 Q455.6406,325.9375 455,326.0781 Q454.3594,326.2344 453.6563,326.2344 Q451.1563,326.2344 449.8281,324.5938 Q448.5156,322.9375 448.5156,319.8125 Q448.5156,316.6875 449.8281,315.0313 Q451.1563,313.375 453.6563,313.375 Q454.3594,313.375 455,313.5313 Q455.6563,313.6875 456.2188,313.9844 L456.2188,316.7031 Q455.5938,316.125 455,315.8594 Q454.4063,315.5781 453.7813,315.5781 Q452.4375,315.5781 451.75,316.6563 Q451.0625,317.7188 451.0625,319.8125 Q451.0625,321.9063 451.75,322.9844 Q452.4375,324.0469 453.7813,324.0469 Q454.4063,324.0469 455,323.7813 Q455.5938,323.5 456.2188,322.9219 L456.2188,325.6406 Z " fill="#000000"/><text fill="#000000" font-family="sans-serif" font-size="14" lengthAdjust="spacing" textLength="27" x="473.75" y="324.8467">Low</text><line style="stroke:#181818;stroke-width:0.5;" x1="329" x2="613" y1="336" y2="336"/><line style="stroke:#181818;stroke-width:0.5;" x1="329" x2="613" y1="344" y2="344"/><ellipse cx="339" cy="357.6484" fill="#84BE84" rx="3" ry="3" style="stroke:#038048;stroke-width:1.0;"/><text fill="#000000" font-family="sans-serif" font-size="14" lengthAdjust="spacing" textLength="260" x="348" y="360.9951">void pull(CeilingFanPullChain wrapper)</text></g><!--MD5=[d915aad2d8be754038301ab9b3e49da5]
class Medium--><g id="elem_Medium"><rect codeLine="20" fill="#F1F1F1" height="64.2969" id="Medium" rx="2.5" ry="2.5" style="stroke:#181818;stroke-width:0.5;" width="286" x="649" y="304"/><ellipse cx="760.25" cy="320" fill="#ADD1B2" rx="11" ry="11" style="stroke:#181818;stroke-width:1.0;"/><path d="M763.2188,325.6406 Q762.6406,325.9375 762,326.0781 Q761.3594,326.2344 760.6563,326.2344 Q758.1563,326.2344 756.8281,324.5938 Q755.5156,322.9375 755.5156,319.8125 Q755.5156,316.6875 756.8281,315.0313 Q758.1563,313.375 760.6563,313.375 Q761.3594,313.375 762,313.5313 Q762.6563,313.6875 763.2188,313.9844 L763.2188,316.7031 Q762.5938,316.125 762,315.8594 Q761.4063,315.5781 760.7813,315.5781 Q759.4375,315.5781 758.75,316.6563 Q758.0625,317.7188 758.0625,319.8125 Q758.0625,321.9063 758.75,322.9844 Q759.4375,324.0469 760.7813,324.0469 Q761.4063,324.0469 762,323.7813 Q762.5938,323.5 763.2188,322.9219 L763.2188,325.6406 Z " fill="#000000"/><text fill="#000000" font-family="sans-serif" font-size="14" lengthAdjust="spacing" textLength="55" x="780.75" y="324.8467">Medium</text><line style="stroke:#181818;stroke-width:0.5;" x1="650" x2="934" y1="336" y2="336"/><line style="stroke:#181818;stroke-width:0.5;" x1="650" x2="934" y1="344" y2="344"/><ellipse cx="660" cy="357.6484" fill="#84BE84" rx="3" ry="3" style="stroke:#038048;stroke-width:1.0;"/><text fill="#000000" font-family="sans-serif" font-size="14" lengthAdjust="spacing" textLength="260" x="669" y="360.9951">void pull(CeilingFanPullChain wrapper)</text></g><!--MD5=[87dec8bc37044ee287e36547435f1f2f]
class High--><g id="elem_High"><rect codeLine="24" fill="#F1F1F1" height="64.2969" id="High" rx="2.5" ry="2.5" style="stroke:#181818;stroke-width:0.5;" width="286" x="970" y="304"/><ellipse cx="1093.25" cy="320" fill="#ADD1B2" rx="11" ry="11" style="stroke:#181818;stroke-width:1.0;"/><path d="M1096.2188,325.6406 Q1095.6406,325.9375 1095,326.0781 Q1094.3594,326.2344 1093.6563,326.2344 Q1091.1563,326.2344 1089.8281,324.5938 Q1088.5156,322.9375 1088.5156,319.8125 Q1088.5156,316.6875 1089.8281,315.0313 Q1091.1563,313.375 1093.6563,313.375 Q1094.3594,313.375 1095,313.5313 Q1095.6563,313.6875 1096.2188,313.9844 L1096.2188,316.7031 Q1095.5938,316.125 1095,315.8594 Q1094.4063,315.5781 1093.7813,315.5781 Q1092.4375,315.5781 1091.75,316.6563 Q1091.0625,317.7188 1091.0625,319.8125 Q1091.0625,321.9063 1091.75,322.9844 Q1092.4375,324.0469 1093.7813,324.0469 Q1094.4063,324.0469 1095,323.7813 Q1095.5938,323.5 1096.2188,322.9219 L1096.2188,325.6406 Z " fill="#000000"/><text fill="#000000" font-family="sans-serif" font-size="14" lengthAdjust="spacing" textLength="31" x="1113.75" y="324.8467">High</text><line style="stroke:#181818;stroke-width:0.5;" x1="971" x2="1255" y1="336" y2="336"/><line style="stroke:#181818;stroke-width:0.5;" x1="971" x2="1255" y1="344" y2="344"/><ellipse cx="981" cy="357.6484" fill="#84BE84" rx="3" ry="3" style="stroke:#038048;stroke-width:1.0;"/><text fill="#000000" font-family="sans-serif" font-size="14" lengthAdjust="spacing" textLength="260" x="990" y="360.9951">void pull(CeilingFanPullChain wrapper)</text></g><!--MD5=[8078538076769d7c71b669a7043eec92]
reverse link State to Off--><g id="link_State_Off"><path codeLine="28" d="M489.19,248.97 C420.41,266.41 338.59,287.17 272.55,303.92 " fill="none" id="State-backto-Off" style="stroke:#181818;stroke-width:1.0;stroke-dasharray:7.0,7.0;"/><polygon fill="none" points="487.58,242.15,508.69,244.02,491.03,255.72,487.58,242.15" style="stroke:#181818;stroke-width:1.0;"/></g><!--MD5=[660777ed09cccb0e7acc22db374ff2a1]
reverse link State to Low--><g id="link_State_Low"><path codeLine="29" d="M574.26,256.27 C553.61,272.01 530.7,289.48 511.71,303.96 " fill="none" id="State-backto-Low" style="stroke:#181818;stroke-width:1.0;stroke-dasharray:7.0,7.0;"/><polygon fill="none" points="570.06,250.66,590.21,244.1,578.55,261.79,570.06,250.66" style="stroke:#181818;stroke-width:1.0;"/></g><!--MD5=[c4001b0c21fd4d69069378bc12d1190c]
reverse link State to Medium--><g id="link_State_Medium"><path codeLine="30" d="M688.1,256.27 C708.87,272.01 731.93,289.48 751.03,303.96 " fill="none" id="State-backto-Medium" style="stroke:#181818;stroke-width:1.0;stroke-dasharray:7.0,7.0;"/><polygon fill="none" points="683.76,261.76,672.04,244.1,692.21,250.6,683.76,261.76" style="stroke:#181818;stroke-width:1.0;"/></g><!--MD5=[8053a611b45bea663c51cd727e50ff70]
reverse link State to High--><g id="link_State_High"><path codeLine="31" d="M773.1,248.97 C842.03,266.41 924.01,287.17 990.19,303.92 " fill="none" id="State-backto-High" style="stroke:#181818;stroke-width:1.0;stroke-dasharray:7.0,7.0;"/><polygon fill="none" points="771.23,255.72,753.56,244.02,774.67,242.14,771.23,255.72" style="stroke:#181818;stroke-width:1.0;"/></g><!--MD5=[38e968a536ffa64f361e79bb4117d7a9]
link CeilingFanPullChain to State--><g id="link_CeilingFanPullChain_State"><path codeLine="32" d="M631,132.3 C631,132.3 631,156.41 631,166.85 " fill="none" id="CeilingFanPullChain-State" style="stroke:#181818;stroke-width:1.0;"/><polygon fill="#181818" points="631,179.94,635,170.94,631,174.94,627,170.94,631,179.94" style="stroke:#181818;stroke-width:1.0;"/><line style="stroke:#181818;stroke-width:1.0;" x1="631" x2="631" y1="174.94" y2="166.94"/><polygon fill="none" points="631,120.3,627,126.3,631,132.3,635,126.3,631,120.3" style="stroke:#181818;stroke-width:1.0;"/></g><!--MD5=[6adfbdf1a46159f4481dc631cc137a93]
@startuml
interface State {
    +void pull(CeilingFanPullChain wrapper)
}

class CeilingFanPullChain {
    -State currentState
    +CeilingFanPullChain()
    +void set_state(State s)
    +void pull()
}

class Off {
    +void pull(CeilingFanPullChain wrapper)
}

class Low {
    +void pull(CeilingFanPullChain wrapper)
}

class Medium {
    +void pull(CeilingFanPullChain wrapper)
}

class High {
    +void pull(CeilingFanPullChain wrapper)
}

State <|.. Off
State <|.. Low
State <|.. Medium
State <|.. High
CeilingFanPullChain o- -> State
@enduml

PlantUML version 1.2022.7(Mon Aug 22 17:01:30 UTC 2022)
(GPL source distribution)
Java Runtime: OpenJDK Runtime Environment
JVM: OpenJDK 64-Bit Server VM
Default Encoding: UTF-8
Language: en
Country: null
--></g></svg>